<svg width="30" height="29" viewBox="0 0 30 29" fill="none" xmlns="http://www.w3.org/2000/svg">
<path d="M10.724 12.5469H19.8386M8.77085 22.8724H13.9792L19.7735 26.7266C19.969 26.8569 20.1963 26.9317 20.431 26.9431C20.6657 26.9544 20.8992 26.9017 21.1063 26.7908C21.3135 26.6799 21.4867 26.5148 21.6074 26.3131C21.7281 26.1115 21.7918 25.8808 21.7917 25.6458V22.8724C25.6979 22.8724 28.3021 20.2682 28.3021 16.362V8.54948C28.3021 4.64323 25.6979 2.03906 21.7917 2.03906H8.77085C4.8646 2.03906 2.26044 4.64323 2.26044 8.54948V16.362C2.26044 20.2682 4.8646 22.8724 8.77085 22.8724Z" stroke="white" stroke-width="2.9375" stroke-miterlimit="10" stroke-linecap="round" stroke-linejoin="round"/>
</svg>
